# xmcd
#
# Track frame offsets: 
#        150
#        22896
#        54138
#        73956
#        88317
#        108817
#        127639
#        148426
#        166837
#        185676
#        203559
#        223664
#        252376
#        269432
#        290774
#        312541
#        340308
#
# Disc length: 4775 seconds
#
# Revision: 0
# Processed by: cddbd v1.5.2PL0 Copyright (c) Steve Scherf et al.
# Submitted via: ExactAudioCopy v1.3
#
DISCID=0912a511
DTITLE=Various Artist - Akella Presents - vol.134 - Women's Blues  CD
DTITLE=1
DYEAR=2018
DGENRE=Blues
TTITLE0=The Sheyana Band - Blindside
TTITLE1=Bettye LaVette - Things Have Changed
TTITLE2=Danielle Nicole - I'm Going Home
TTITLE3=Annika Chambers - Raggedy And Dirty
TTITLE4=Kerrie Lepai - Whiskey Drinkin Blues
TTITLE5=The Sheyana Band - Stories
TTITLE6=Maria Muldaur - Trouble With Love
TTITLE7=Laurie Morvan - Gravity
TTITLE8=Sharrie Williams - Power
TTITLE9=Candice Coleman - Without My Baby
TTITLE10=Peggie Perkins - Dreams
TTITLE11=Bella - That's Why It's Okay
TTITLE12=Deborah Bonham - Devil's In New Orleans
TTITLE13=Laura Petch - You'll Get Tired Of Winning
TTITLE14=Deborah Coleman - I'm A Woman
TTITLE15=Stacey Turpenoff - Dark Angel
TTITLE16=Ashley Cleveland - Born To Preach The Gospel
EXTD=
EXTT0=
EXTT1=
EXTT2=
EXTT3=
EXTT4=
EXTT5=
EXTT6=
EXTT7=
EXTT8=
EXTT9=
EXTT10=
EXTT11=
EXTT12=
EXTT13=
EXTT14=
EXTT15=
EXTT16=
PLAYORDER=
